Coordinates
version=1
nRows=17
nColumns=36
inDegrees=yes

Units are S.I. units (second, meters, Newtons, ...)
If the header above contains a line with 'inDegrees', this indicates whether rotational values are in degrees (yes) or radians (no).

endheader
time	pelvis_tilt	pelvis_list	pelvis_rotation	pelvis_tx	pelvis_ty	pelvis_tz	hip_flexion_r	hip_adduction_r	hip_rotation_r	knee_angle_r	knee_angle_r_beta	ankle_angle_r	subtalar_angle_r	mtp_angle_r	hip_flexion_l	hip_adduction_l	hip_rotation_l	knee_angle_l	knee_angle_l_beta	ankle_angle_l	subtalar_angle_l	mtp_angle_l	lumbar_extension	lumbar_bending	lumbar_rotation	arm_flex_r	arm_add_r	arm_rot_r	elbow_flex_r	pro_sup_r	arm_flex_l	arm_add_l	arm_rot_l	elbow_flex_l	pro_sup_l
      0.62000000	      2.83364905	      4.77214451	     -4.35499383	      0.73674191	      0.87156344	     -0.25506925	    -14.79554336	     -4.22740295	     -0.24538040	     41.39982814	      0.72256331	     -4.60798093	     -4.97606572	     -7.24198463	     23.81711021	      6.44040329	     -6.10991926	     23.15513510	      0.40413335	      0.49786471	     -5.92355653	     -7.24198463	    -10.48723523	     -8.92317734	      6.98771489	      5.41875552	     -6.50798484	      3.49522067	     39.25194395	    100.78458614	     -5.19467006	     -8.26452386	      2.59037099	      4.99584287	     79.72030849
      0.63000000	      3.02371762	      5.24074650	     -4.22262213	      0.75151709	      0.87330797	     -0.25653352	    -12.90442096	     -4.96988455	     -0.39399416	     45.60379284	      0.79593634	     -8.17623287	     -6.60181971	     -7.24720622	     23.14489221	      7.10170731	     -6.02498914	     24.28960417	      0.42393357	      1.23917966	     -5.85229359	     -7.24720622	    -10.69608455	     -9.52621616	      6.16906146	      5.17440074	     -5.98745829	      3.16826382	     38.05161070	    100.67445340	     -4.70423047	     -8.34033469	      2.62793538	      5.70253905	     79.79453260
      0.64000000	      3.34285504	      5.66129322	     -4.12776944	      0.76579726	      0.87537018	     -0.25800507	    -11.02813417	     -5.64005131	     -0.33951033	     49.71434534	      0.86767901	    -10.97891363	     -8.25205213	     -7.25249191	     22.16826114	      7.72262790	     -6.10172208	     25.05492313	      0.43729090	      2.12662943	     -5.60923272	     -7.25249191	    -11.17617790	    -10.03965362	      5.34727634	      4.97155052	     -5.54774309	      2.94638086	     36.99480467	    100.56722487	     -4.05002887	     -8.34604385	      2.61787365	      6.54418372	     79.92191152
      0.65000000	      3.60268232	      5.92965625	     -4.10512785	      0.77985045	      0.87745666	     -0.25917735	     -9.01135576	     -6.08833447	     -0.18018004	     53.62164946	      0.93587433	    -13.15440223	    -10.42940930	     -7.26059555	     21.10609793	      8.11660688	     -6.29762362	     25.57911498	      0.44643978	      3.11149979	     -5.01547628	     -7.26059555	    -11.57296739	    -10.38312229	      4.51942483	      4.82060987	     -5.11774937	      2.76642748	     35.85261658	    100.41666612	     -3.49511710	     -8.42626145	      2.40718113	      7.66513648	     80.15169670
      0.66000000	      4.05565584	      6.27474417	     -4.18492627	      0.79368376	      0.87984303	     -0.26038959	     -7.13604755	     -6.73739261	     -0.05779261	     57.33758853	      1.00072971	    -13.64163147	    -11.44717919	     -7.26317833	     19.61085876	      8.67142672	     -6.44746725	     25.59488892	      0.44671508	      3.96153385	     -4.87346618	     -7.26317833	    -12.21187184	    -10.80388835	      3.84110506	      4.54714827	     -4.84457560	      2.66344543	     35.10962454	    100.32354566	     -2.64313905	     -8.46637640	      2.40172602	      8.50836156	     80.29780722
      0.67000000	      4.12511411	      6.40649108	     -4.24311667	      0.80726808	      0.88177128	     -0.26156981	     -4.78866751	     -7.04753559	      0.13392824	     60.79657033	      1.06110033	    -13.67194108	    -13.43487382	     -7.26946345	     18.51934771	      8.92799799	     -6.72131339	     25.59567931	      0.44672888	      4.86727759	     -4.18658528	     -7.26946345	    -12.37361386	    -10.91497112	      3.12387225	      4.44200650	     -4.54767643	      2.44625331	     33.88667809	    100.11082485	     -2.09834552	     -8.55251115	      2.14349004	     10.07781368	     80.63715229
      0.68000000	      4.39210876	      6.45055454	     -4.39158730	      0.82067556	      0.88403869	     -0.26262818	     -2.68054834	     -7.26394810	      0.38269400	     63.80017705	      1.11352315	    -13.02052173	    -15.15397712	     -7.32548708	     17.09099416	      9.10826564	     -7.02538260	     25.36624239	      0.44272445	      5.90427461	     -3.41464371	     -7.32548708	    -12.82424361	    -10.95821658	      2.09297429	      4.56516240	     -4.37218687	      3.16920164	     32.74739443	     99.08263701	     -1.95282179	     -8.37954525	     -2.65086285	     12.80207855	     83.19072241
      0.69000000	      4.63997952	      6.41846357	     -4.54554508	      0.83391393	      0.88634932	     -0.26376205	     -0.58572145	     -7.37925165	      0.63969643	     66.34922502	      1.15801243	    -11.77065832	    -16.46513404	     -7.32745833	     15.58948919	      9.29361628	     -7.06722622	     24.91837742	      0.43490773	      6.60319627	     -3.31098663	     -7.32745833	    -13.20716264	    -10.87482082	      1.63585478	      4.32127699	     -4.31523455	      3.03204248	     31.96307106	     98.98489571	     -0.95116331	     -8.39050899	     -2.41468867	     13.80846315	     83.42463628
      0.70000000	      4.74155023	      6.27949846	     -4.63718112	      0.84697891	      0.88854108	     -0.26488920	      1.61660989	     -7.32120132	      0.83905176	     68.43200125	      1.19436374	    -10.35662001	    -17.67567883	     -7.32955394	     14.25933694	      9.35449700	     -7.03289094	     24.48500562	      0.42734397	      7.27614596	     -3.06189712	     -7.32955394	    -13.45701568	    -10.65609972	      1.09349827	      4.10240085	     -4.24749855	      2.87372107	     31.04670105	     98.85624466	     -0.06461914	     -8.43753543	     -2.14463312	     15.07923136	     83.70938662
      0.71000000	      4.81789995	      6.03370015	     -4.64206303	      0.85987967	      0.89075261	     -0.26609449	      3.74922833	     -7.09808551	      0.97065599	     69.98355370	      1.22144343	     -9.05261251	    -18.57696838	     -7.33145372	     12.96314721	      9.31570461	     -6.88137328	     24.06201784	      0.41996144	      7.89689014	     -2.76864436	     -7.33145372	    -13.70629182	    -10.28938807	      0.49004066	      3.91890756	     -4.22015301	      2.75511420	     30.17447048	     98.72193904	      0.85453041	     -8.48651029	     -1.89652160	     16.38964692	     83.99746959
      0.72000000	      4.81772436	      5.72636029	     -4.52572700	      0.87274841	      0.89288341	     -0.26740463	      5.83258703	     -6.82089011	      0.93257351	     71.01830470	      1.23950325	     -7.53260243	    -18.71161344	     -7.33837527	     11.77346021	      9.16926703	     -6.79379923	     23.71102598	      0.41383547	      8.69102904	     -2.06115379	     -7.33837527	    -13.86412790	     -9.82209058	     -0.42106940	      3.92829102	     -4.18452145	      2.86813656	     29.04841696	     98.36255909	      1.45823255	     -8.63911821	     -1.81922533	     18.28140065	     84.72242685
      0.73000000	      4.86617564	      5.39567302	     -4.34757298	      0.88550937	      0.89513673	     -0.26872139	      7.73356302	     -6.46968283	      0.85484210	     71.50568377	      1.24800962	     -6.49159871	    -19.25619571	     -7.33995962	     10.47787594	      9.05987058	     -6.38469370	     23.21434117	      0.40516669	      9.12109826	     -1.82316150	     -7.33995962	    -14.10254427	     -9.33418539	     -1.05380125	      3.62088037	     -4.25133687	      2.82441609	     28.39298231	     98.23205898	      2.62284387	     -8.67924914	     -1.66771998	     19.35304024	     84.97521237
      0.74000000	      4.88830712	      5.05246248	     -4.00616892	      0.89829101	      0.89731694	     -0.27022704	      9.48069387	     -6.14158065	      0.58036773	     71.48513621	      1.24765099	     -5.35102539	    -19.44782274	     -7.34193850	      9.19641527	      8.94546024	     -5.84933180	     22.67797059	      0.39580525	      9.60481012	     -1.47451655	     -7.34193850	    -14.29922421	     -8.77970829	     -1.89385267	      3.38385206	     -4.29824554	      2.71025138	     27.60965547	     98.04239662	      3.58749572	     -8.79991690	     -1.36532667	     20.77914475	     85.33100601
      0.75000000	      5.00644348	      4.75883758	     -3.57510714	      0.91098504	      0.89950860	     -0.27177207	     10.99710429	     -5.93033473	      0.15837612	     70.99252557	      1.23905332	     -4.08828858	    -19.03690200	     -7.34514274	      7.82704648	      8.85518707	     -5.39237859	     22.16404800	      0.38683561	     10.09239317	     -1.05674539	     -7.34514274	    -14.63572276	     -8.26436332	     -3.02252427	      3.28707803	     -4.32266980	      2.60778041	     26.88860163	     97.75439854	      4.44653011	     -9.04026935	     -0.98438427	     22.42194845	     85.85556521
      0.76000000	      5.08667709	      4.44297225	     -3.07655173	      0.92372357	      0.90158131	     -0.27325711	     12.38942303	     -5.68770629	     -0.33853945	     70.03918487	      1.22241438	     -2.77968792	    -18.49678947	     -7.34862440	      6.46840312	      8.70208334	     -4.90639277	     21.56021082	      0.37629667	     10.44607935	     -0.61008127	     -7.34862440	    -14.91609574	     -7.75108500	     -4.02378822	      3.00370764	     -4.35487407	      2.54334280	     26.32436153	     97.44874361	      5.44562169	     -9.22993005	     -0.68393252	     23.86867122	     86.40541102
      0.77000000	      5.16959148	      4.15062223	     -2.52747761	      0.93645914	      0.90348549	     -0.27477261	     13.62396110	     -5.48857684	     -0.88269991	     68.65280712	      1.19821752	     -1.46603802	    -17.87008339	     -7.35221466	      5.10088268	      8.56362848	     -4.39330324	     20.93422099	      0.36537108	     10.75921615	     -0.13616503	     -7.35221466	    -15.17340767	     -7.23879373	     -5.01481705	      2.67206687	     -4.42851960	      2.40356979	     25.86126631	     97.13069704	      6.48161740	     -9.44380247	     -0.40049289	     25.28376590	     86.99379570
      0.78000000	      5.00763280	      3.85284199	     -1.98714252	      0.94917708	      0.90483809	     -0.27620918	     15.05581638	     -5.25855652	     -1.41515458	     66.93159048	      1.16817663	     -0.64471139	    -17.70142151	     -7.35341060	      4.04247614	      8.35412577	     -4.04221383	     20.34553616	      0.35509659	     10.85664831	      0.22931005	     -7.35341060	    -15.10846197	     -6.73106329	     -5.74979453	      2.15938621	     -4.56904795	      2.29190425	     25.49106335	     97.00501623	      7.72248840	     -9.52355316	     -0.23348064	     26.33538297	     87.27046044
